<?xml version="1.0" standalone="no"?>
<!DOCTYPE svg PUBLIC "-//W3C//DTD SVG 20010904//EN"
 "http://www.w3.org/TR/2001/REC-SVG-20010904/DTD/svg10.dtd">
<svg version="1.0" xmlns="http://www.w3.org/2000/svg"
 width="320.000000pt" height="320.000000pt" viewBox="0 0 320.000000 320.000000"
 preserveAspectRatio="xMidYMid meet">
<metadata>
Created by potrace 1.14, written by Peter Selinger 2001-2017
</metadata>
<g transform="translate(0.000000,320.000000) scale(0.100000,-0.100000)"
fill="#000000" stroke="none">
<path d="M1450 3194 c-14 -2 -59 -9 -100 -15 -213 -30 -433 -116 -623 -243
-199 -132 -330 -264 -463 -462 -125 -188 -204 -389 -246 -624 -17 -98 -17
-402 0 -500 65 -362 214 -644 478 -901 563 -546 1447 -597 2074 -118 88 67
248 228 312 314 306 412 396 960 237 1448 -75 231 -200 437 -368 611 -253 259
-524 406 -876 472 -77 15 -373 27 -425 18z m288 -144 c253 -27 459 -100 666
-237 139 -91 320 -273 410 -411 321 -490 320 -1117 -1 -1606 -90 -137 -272
-319 -409 -409 -489 -321 -1116 -322 -1606 -1 -138 90 -320 271 -411 410 -219
331 -293 723 -211 1114 114 544 574 1003 1119 1115 155 32 299 40 443 25z"/>
<path d="M720 2250 c-11 -11 -20 -33 -20 -49 0 -33 16 -49 213 -206 69 -55
126 -103 126 -107 1 -5 -77 -8 -173 -8 -153 0 -176 -2 -196 -18 -32 -26 -30
-70 4 -99 27 -23 29 -23 312 -23 l285 0 24 25 c14 13 25 32 25 42 -1 42 -16
56 -388 356 -143 115 -172 127 -212 87z"/>
<path d="M2348 2227 c-29 -23 -136 -110 -238 -191 -102 -82 -195 -160 -207
-173 -31 -33 -30 -76 3 -102 26 -20 39 -21 309 -21 270 0 283 1 309 21 32 25
36 77 8 102 -16 15 -45 17 -195 17 -97 0 -177 3 -176 8 0 4 70 63 156 132 85
69 161 134 169 145 20 28 17 62 -6 85 -32 32 -73 25 -132 -23z"/>
<path d="M729 1469 c-39 -14 -52 -55 -44 -136 25 -233 121 -431 286 -588 122
-116 237 -182 396 -227 113 -32 353 -32 466 0 159 45 274 111 396 227 163 155
257 348 280 574 11 102 2 135 -41 150 -41 14 -1701 14 -1739 0z m1636 -181
c-27 -177 -134 -367 -270 -479 -70 -58 -212 -131 -305 -156 -90 -24 -290 -24
-380 0 -92 25 -235 98 -300 151 -65 54 -132 132 -179 210 -38 63 -86 197 -96
269 l-6 47 771 0 772 0 -7 -42z"/>
</g>
</svg>
